#!OML:ASF F:\twosubjects\two\wednesday\Session 1\rory1.ASF
:FULLY-SPECIFIED
:DEGREES
551
root 2.13216 15.6742 1.54411 -822.568 74.4918 253.539
lowerback 15.2118 0.220864 -3.86915
upperback 5.80149 0.198603 3.61419
thorax -2.37607 0.162439 5.98108
lowerneck 4.81881 16.1387 9.67796
upperneck -18.8648 20.0415 -26.2332
head -2.37461 11.4564 -9.81875
rclavicle 4.77083e-015 2.38542e-014
rhumerus -62.9975 -40.3612 -10.8252
rradius 19.0516
rwrist 6.69348
rhand -22.0282 27.3521
rfingers 7.12502
rthumb 4.38155 -2.5826
lclavicle 4.77083e-015 2.38542e-014
lhumerus -31.8229 -58.065 43.9805
lradius 105.076
lwrist 79.486
lhand -21.0478 25.8729
lfingers 7.12502
lthumb 5.32816 55.7859
rfemur -60.5297 4.05323 15.2575
rtibia 47.203
rfoot -1.22693 15.591
rtoes -11.7673
lfemur 7.21475 -0.456987 -35.0101
ltibia 29.9483
lfoot -23.9187 -4.67984
ltoes 23.3779
552
root 2.37641 15.5726 1.5673 -822.572 74.3799 253.263
lowerback 14.7149 0.635286 -3.54655
upperback 5.65411 0.776501 3.36265
thorax -2.3407 0.451591 5.42383
lowerneck 4.7689 16.0417 9.87516
upperneck -18.8124 19.953 -26.0096
head -2.37363 11.3811 -9.77718
rclavicle 2.14687e-014 5.24792e-014
rhumerus -63.7511 -41.1415 -10.7138
rradius 19.2687
rwrist 5.97882
rhand -22.3749 27.5921
rfingers 7.12502
rthumb 4.04676 -2.34926
lclavicle 2.14687e-014 5.24792e-014
lhumerus -31.5562 -57.8863 43.4219
lradius 104.894
lwrist 79.494
lhand -19.4897 26.8703
lfingers 7.12502
lthumb 6.83241 56.7401
rfemur -60.91 4.11151 16.1161
rtibia 49.0084
rfoot -0.818899 16.9533
rtoes -12.7775
lfemur 7.35352 0.0707055 -34.897
ltibia 31.0248
lfoot -24.541 -3.05082
ltoes 13.7873
553
root 2.61937 15.4484 1.57539 -823.258 74.3516 252.175
lowerback 14.2933 0.857598 -3.21983
upperback 5.43339 1.09943 3.18521
thorax -2.38178 0.614745 4.99263
lowerneck 4.4638 16.1585 9.97419
upperneck -18.4494 20.1656 -25.9808
head -2.17226 11.4475 -9.69536
rclavicle -1.51076e-014 -4.45278e-014
rhumerus -63.584 -41.9303 -11.0112
rradius 19.1982
rwrist 5.14675
rhand -22.1127 27.5446
rfingers 7.12502
rthumb 4.29993 -2.39174
lclavicle -1.51076e-014 -4.45278e-014
lhumerus -31.9823 -57.3339 43.7975
lradius 104.78
lwrist 79.7323
lhand -18.392 28.711
lfingers 7.12502
lthumb 7.89201 58.5437
rfemur -61.3794 4.01326 16.6597
rtibia 50.9637
rfoot -0.123051 18.0123
rtoes -10.3832
lfemur 7.02612 0.20925 -34.9934
ltibia 32.7024
lfoot -24.427 -2.1886
ltoes 6.79509
554
root 2.87223 15.3589 1.5528 -824.253 74.2642 250.875
lowerback 13.9491 0.989374 -2.74428
upperback 5.25091 1.32868 3.11289
thorax -2.40681 0.732069 4.6066
lowerneck 4.67416 16.3396 10.0607
upperneck -18.5217 20.4095 -26.4483
head -2.11145 11.6154 -9.84497
rclavicle -4.77083e-015 -6.20208e-014
rhumerus -62.604 -42.5364 -11.8761
rradius 19.0335
rwrist 4.26944
rhand -21.722 27.3194
rfingers 7.12502
rthumb 4.67724 -2.60901
lclavicle -4.77083e-015 -6.20208e-014
lhumerus -32.8823 -56.6566 44.8276
lradius 104.652
lwrist 80.2963
lhand -19.1617 29.0369
lfingers 7.12502
lthumb 7.14907 58.8962
rfemur -61.4326 3.86451 17.1177
rtibia 52.852
rfoot 0.474209 19.2521
rtoes -9.13789
lfemur 6.34602 0.516176 -34.9344
ltibia 35.309
lfoot -23.5474 -2.02802
ltoes 1.4346
555
root 3.12785 15.28 1.52499 -825.911 74.3128 248.884
lowerback 13.8575 1.00994 -2.49226
upperback 4.89497 1.3713 3.04504
thorax -2.7312 0.758953 4.38206
lowerneck 5.52235 16.7313 10.4762
upperneck -18.8612 20.9359 -27.5532
head -2.05135 11.9956 -10.2821
rclavicle -1.78906e-014 -1.74931e-014
rhumerus -60.6786 -42.349 -13.9415
rradius 19.0546
rwrist 2.94668
rhand -22.0102 27.9796
rfingers 7.12502
rthumb 4.39894 -1.95472
lclavicle -1.78906e-014 -1.74931e-014
lhumerus -34.9356 -55.7688 46.8352
lradius 104.164
lwrist 80.1813
lhand -18.5182 27.7932
lfingers 7.12502
lthumb 7.77018 57.6304
rfemur -61.1981 3.60932 17.331
rtibia 54.6163
rfoot 0.851996 20.308
rtoes -7.60234
lfemur 5.23336 1.00146 -34.8486
ltibia 38.9162
lfoot -21.8479 -3.2791
ltoes 0.334421
556
root 3.378 15.2201 1.49129 -828.655 74.4173 245.743
lowerback 13.9492 0.955517 -2.54604
upperback 4.42777 1.27202 3.02582
thorax -3.26359 0.71713 4.40619
lowerneck 5.52325 17.1421 10.5451
upperneck -18.2954 21.5787 -27.9849
head -1.69892 12.3094 -10.2902
rclavicle -1.03368e-014 -1.59028e-014
rhumerus -58.851 -42.2445 -15.6547
rradius 19.0936
rwrist 2.07188
rhand -22.3263 29.337
rfingers 7.12502
rthumb 4.09366 -0.603413
lclavicle -1.03368e-014 -1.59028e-014
lhumerus -37.2287 -54.7026 48.7392
lradius 103.964
lwrist 80.0577
lhand -17.5975 27.5777
lfingers 7.12502
lthumb 8.65878 57.3801
rfemur -60.6247 3.26336 17.2
rtibia 56.0363
rfoot -0.794019 21.5781
rtoes -4.33801
lfemur 3.68011 1.117 -34.7558
ltibia 43.2435
lfoot -18.4713 -6.47604
ltoes 9.64875
557
root 3.63323 15.1868 1.44219 -831.458 74.0528 242.583
lowerback 13.9261 0.974221 -2.10273
upperback 4.03932 1.34754 3.04756
thorax -3.66016 0.760204 4.16171
lowerneck 4.85018 17.331 10.3918
upperneck -17.3544 21.9538 -27.7619
head -1.29989 12.3999 -10.0063
rclavicle 1.55052e-014 2.38542e-014
rhumerus -57.7429 -42.4045 -16.7226
rradius 19.1855
rwrist 1.4845
rhand -21.5687 29.2241
rfingers 7.12502
rthumb 4.82526 -0.700915
lclavicle 1.55052e-014 2.38542e-014
lhumerus -38.3256 -53.9063 49.4276
lradius 104.211
lwrist 80.2845
lhand -17.8616 28.5344
lfingers 7.12502
lthumb 8.40388 58.3472
rfemur -59.7393 3.11794 17.2335
rtibia 57.0409
rfoot -5.43091 23.2909
rtoes -1.61937
lfemur 1.74867 1.30575 -34.0886
ltibia 48.0469
lfoot -13.0592 -8.09804
ltoes 14.5277
558
root 3.89309 15.1812 1.37082 -834.142 73.4212 239.691
lowerback 13.9278 1.03434 -1.23963
upperback 3.71956 1.54155 3.03155
thorax -3.99554 0.85695 3.61718
lowerneck 4.58567 17.3773 10.3258
upperneck -17.135 22.0579 -27.6591
head -1.19783 12.4258 -9.90831
rclavicle -7.15625e-015 2.54444e-014
rhumerus -56.759 -42.2067 -18.0241
rradius 19.5625
rwrist 0.68812
rhand -20.3682 28.6199
rfingers 7.12502
rthumb 5.98439 -1.27558
lclavicle -7.15625e-015 2.54444e-014
lhumerus -38.9117 -53.3728 49.688
lradius 104.435
lwrist 80.3049
lhand -17.9103 28.8867
lfingers 7.12502
lthumb 8.35688 58.7013
rfemur -58.7845 3.32258 17.1061
rtibia 57.7461
rfoot -8.58846 25.4669
rtoes 7.8018
lfemur -0.394904 1.74942 -33.1735
ltibia 52.9008
lfoot -5.54763 -7.4861
ltoes 14.2397
559
root 4.14089 15.1945 1.29599 -835.841 72.2968 238.04
lowerback 14.2407 0.943233 0.00595375
upperback 3.52912 1.62366 3.24064
thorax -4.34743 0.896458 3.11051
lowerneck 4.28806 17.5576 10.04
upperneck -17.1804 22.288 -27.6201
head -1.16206 12.5446 -9.80303
rclavicle 1.66979e-014 -5.88403e-014
rhumerus -55.0557 -42.0086 -19.762
rradius 20.0412
rwrist 0.161357
rhand -19.4135 28.597
rfingers 7.12502
rthumb 6.90604 -1.27035
lclavicle 1.66979e-014 -5.88403e-014
lhumerus -39.3919 -52.5958 49.9071
lradius 104.491
lwrist 80.5274
lhand -17.7965 28.7776
lfingers 7.12502
lthumb 8.46669 58.5878
rfemur -57.9308 4.05373 17.1737
rtibia 58.3832
rfoot -14.2582 20.0639
rtoes -13.2684
lfemur -2.83605 2.44036 -31.6398
ltibia 57.9807
lfoot 2.31937 -6.23343
ltoes 11.4765
560
root 4.36667 15.1633 1.25001 -836.489 70.7272 237.69
lowerback 14.8111 0.861008 1.51253
upperback 3.50511 1.80614 3.66902
thorax -4.664 0.985981 2.66791
lowerneck 3.33222 17.8515 9.67749
upperneck -16.7182 22.7248 -27.3642
head -0.878476 12.691 -9.48577
rclavicle 1.82882e-014 1.90833e-014
rhumerus -52.798 -41.8367 -21.7725
rradius 20.3857
rwrist -0.53224
rhand -18.5007 28.3413
rfingers 7.12502
rthumb 7.78708 -1.49526
lclavicle 1.82882e-014 1.90833e-014
lhumerus -38.7583 -52.2324 49.7206
lradius 104.541
lwrist 81.0383
lhand -17.8018 28.8731
lfingers 7.12502
lthumb 8.46161 58.6836
rfemur -57.431 5.21716 17.7079
rtibia 59.4398
rfoot -15.299 15.4028
rtoes -18.2606
lfemur -5.18943 3.59075 -29.5225
ltibia 62.7639
lfoot 8.38022 -6.32913
ltoes 8.64507
561
root 4.58595 15.1227 1.20064 -837.13 69.4758 237.323
lowerback 15.1769 0.999318 2.5898
upperback 3.47442 2.2241 4.09405
thorax -4.88963 1.1922 2.42322
lowerneck 2.68902 17.968 9.41691
upperneck -16.2642 22.94 -27.0409
head -0.68755 12.7364 -9.23099
rclavicle 3.02153e-014 3.89618e-014
rhumerus -50.4851 -41.0338 -23.7487
rradius 20.6749
rwrist -1.69501
rhand -17.911 28.2927
rfingers 7.12502
rthumb 8.35627 -1.52204
lclavicle 3.02153e-014 3.89618e-014
lhumerus -38.0033 -52.5563 49.546
lradius 104.892
lwrist 81.201
lhand -17.7815 28.9165
lfingers 7.12502
lthumb 8.48121 58.7262
rfemur -57.1063 6.24089 18.1384
rtibia 60.7347
rfoot -15.1328 16.4991
rtoes -14.1636
lfemur -7.63424 3.99153 -27.7217
ltibia 68.5832
lfoot 6.75852 -6.35791
ltoes 2.96218
562
root 4.79911 15.0587 1.15499 -838.073 68.6374 236.53
lowerback 15.2494 1.12632 3.18233
upperback 3.40313 2.53275 4.45328
thorax -5.00535 1.34552 2.40802
lowerneck 2.97791 18.097 9.3376
upperneck -16.3685 23.125 -27.1608
head -0.72606 12.8663 -9.27243
rclavicle 7.95139e-016 -4.13472e-014
rhumerus -47.8723 -39.6867 -25.8274
rradius 20.9762
rwrist -2.67114
rhand -17.9115 28.6684
rfingers 7.12502
rthumb 8.35574 -1.14634
lclavicle 7.95139e-016 -4.13472e-014
lhumerus -38.9067 -51.8601 50.0234
lradius 105.302
lwrist 80.5672
lhand -17.3132 28.8551
lfingers 7.12502
lthumb 8.93317 58.646
rfemur -56.9764 6.76369 18.5012
rtibia 62.2985
rfoot -16.6252 14.8061
rtoes -17.69
lfemur -10.1143 5.26274 -26.7712
ltibia 73.4069
lfoot 4.0812 -7.35995
ltoes -13.9057
563
root 5.0097 15.071 1.06884 -840.229 67.8918 234.938
lowerback 15.5576 1.21493 3.77807
upperback 3.54633 2.79012 4.59302
thorax -5.00657 1.47634 2.1645
lowerneck 3.59777 18.129 9.55833
upperneck -16.9971 23.1302 -27.5983
head -0.912727 12.9654 -9.53686
rclavicle -3.57812e-015 -1.82882e-014
rhumerus -45.7326 -38.8658 -27.3578
rradius 21.2364
rwrist -2.97392
rhand -18.185 28.5992
rfingers 7.12502
rthumb 8.09177 -1.22585
lclavicle -3.57812e-015 -1.82882e-014
lhumerus -39.4223 -50.838 49.9177
lradius 105.573
lwrist 79.9266
lhand -16.6694 28.794
lfingers 7.12502
lthumb 9.55437 58.5574
rfemur -55.6925 6.7515 18.8243
rtibia 63.4324
rfoot -18.2845 12.1597
rtoes -20.9027
lfemur -12.6186 5.03296 -25.7151
ltibia 79.2905
lfoot 3.34365 -6.52862
ltoes 0.292372
564
root 5.21901 15.0711 0.981512 -843.586 66.8962 232.853
lowerback 16.461 1.30955 4.71349
upperback 3.84278 3.16309 4.63791
thorax -5.13906 1.66551 1.59107
lowerneck 4.49012 17.8238 10.1018
upperneck -17.942 22.6698 -28.1463
head -1.25948 12.8645 -9.99313
rclavicle -2.38542e-015 0
rhumerus -44.4131 -38.6489 -27.9165
rradius 21.2809
rwrist -2.77392
rhand -18.5368 28.143
rfingers 7.12502
rthumb 7.75224 -1.69491
lclavicle -2.38542e-015 0
lhumerus -38.7897 -50.6358 49.094
lradius 105.633
lwrist 79.729
lhand -16.2218 29.1382
lfingers 7.12502
lthumb 9.98622 58.8813
rfemur -53.476 6.41208 19.2748
rtibia 64.3425
rfoot -19.3632 10.7339
rtoes -20.8169
lfemur -13.7202 5.75134 -24.9079
ltibia 83.438
lfoot 2.684 -5.4212
ltoes -10.6593
